<?xml version="1.0" encoding="UTF-8" standalone="no"?>
<svg
   xmlns:dc="http://purl.org/dc/elements/1.1/"
   xmlns:cc="http://creativecommons.org/ns#"
   xmlns:rdf="http://www.w3.org/1999/02/22-rdf-syntax-ns#"
   xmlns:svg="http://www.w3.org/2000/svg"
   xmlns="http://www.w3.org/2000/svg"
   xmlns:sodipodi="http://sodipodi.sourceforge.net/DTD/sodipodi-0.dtd"
   xmlns:inkscape="http://www.inkscape.org/namespaces/inkscape"
   id="b4399b83-2ecd-46d4-bd64-e276547eb0bb"
   data-name="Layer 1"
   width="674.28741"
   height="565"
   viewBox="0 0 674.28743 565"
   version="1.1"
   sodipodi:docname="booking.svg"
   inkscape:version="1.0.1 (3bc2e813f5, 2020-09-07)">
  <metadata
     id="metadata182">
    <rdf:RDF>
      <cc:Work
         rdf:about="">
        <dc:format>image/svg+xml</dc:format>
        <dc:type
           rdf:resource="http://purl.org/dc/dcmitype/StillImage" />
      </cc:Work>
    </rdf:RDF>
  </metadata>
  <defs
     id="defs180" />
  <sodipodi:namedview
     pagecolor="#ffffff"
     bordercolor="#666666"
     borderopacity="1"
     objecttolerance="10"
     gridtolerance="10"
     guidetolerance="10"
     inkscape:pageopacity="0"
     inkscape:pageshadow="2"
     inkscape:window-width="1920"
     inkscape:window-height="1057"
     id="namedview178"
     showgrid="false"
     inkscape:zoom="1.4523206"
     inkscape:cx="426.55872"
     inkscape:cy="282.5"
     inkscape:window-x="-8"
     inkscape:window-y="-8"
     inkscape:window-maximized="1"
     inkscape:current-layer="b4399b83-2ecd-46d4-bd64-e276547eb0bb" />
  <path
     d="m 673,33 v 76 h -2 v -0.81 H 2 V 109 H 0 V 33 A 33.03244,33.03244 0 0 1 33,0 h 607 a 33.03244,33.03244 0 0 1 33,33 z"
     fill="#ff6366"
     id="path123" />
  <path
     d="M 640,0 H 33 A 33.03244,33.03244 0 0 0 0,33 v 434 a 33.03244,33.03244 0 0 0 33,33 h 607 a 33.03244,33.03244 0 0 0 33,-33 V 33 A 33.03244,33.03244 0 0 0 640,0 Z m 31,467 a 31.03964,31.03964 0 0 1 -31,31 H 33 A 31.03963,31.03963 0 0 1 2,467 V 33 A 31.03963,31.03963 0 0 1 33,2 h 607 a 31.03964,31.03964 0 0 1 31,31 z"
     fill="#3f3d56"
     id="path125" />
  <circle
     cx="136"
     cy="54.5"
     r="20"
     fill="#ffffff"
     id="circle127" />
  <circle
     cx="537"
     cy="54.5"
     r="20"
     fill="#ffffff"
     id="circle129" />
  <path
     d="M 193.78463,277.50191 H 74.8084 A 19.033,19.033 0 0 1 55.79695,258.49047 V 202.25784 A 19.033,19.033 0 0 1 74.8084,183.2464 h 118.97623 a 19.033,19.033 0 0 1 19.01145,19.01144 v 56.23263 a 19.033,19.033 0 0 1 -19.01145,19.01144 z"
     fill="#ff6366"
     id="path131" />
  <path
     d="M 396.1832,277.50191 H 277.20696 A 19.033,19.033 0 0 1 258.19552,258.49047 V 202.25784 A 19.033,19.033 0 0 1 277.20696,183.2464 H 396.1832 a 19.033,19.033 0 0 1 19.01144,19.01144 v 56.23263 a 19.033,19.033 0 0 1 -19.01144,19.01144 z"
     fill="#ff6366"
     id="path133" />
  <path
     d="M 396.1832,422.79329 H 277.20696 A 19.60963,19.60963 0 0 1 257.61941,403.20574 V 346.97255 A 19.60962,19.60962 0 0 1 277.20696,327.385 H 396.1832 a 19.60962,19.60962 0 0 1 19.58752,19.58755 v 56.23319 a 19.60962,19.60962 0 0 1 -19.58752,19.58755 z"
     fill="#f2f2f2"
     id="path135" />
  <path
     d="M 193.39447,422.79329 H 74.41823 A 19.60963,19.60963 0 0 1 54.83072,403.20574 V 346.97255 A 19.60962,19.60962 0 0 1 74.41823,327.385 h 118.97624 a 19.60962,19.60962 0 0 1 19.58755,19.58754 v 56.23319 a 19.60963,19.60963 0 0 1 -19.58755,19.58756 z"
     fill="#f2f2f2"
     id="path137" />
  <path
     d="M 598.58172,422.79329 H 479.60552 A 19.60962,19.60962 0 0 1 460.01798,403.20574 V 346.97255 A 19.60962,19.60962 0 0 1 479.60552,327.385 h 118.9762 a 19.60962,19.60962 0 0 1 19.58755,19.58754 v 56.23319 a 19.60963,19.60963 0 0 1 -19.58755,19.58756 z"
     fill="#f2f2f2"
     id="path139" />
  <path
     d="m 598.58172,277.615 h -118.9762 a 19.60962,19.60962 0 0 1 -19.58754,-19.58754 v -56.2332 a 19.60962,19.60962 0 0 1 19.58754,-19.58755 h 118.9762 a 19.60963,19.60963 0 0 1 19.58755,19.58755 v 56.23319 A 19.60962,19.60962 0 0 1 598.58172,277.615 Z"
     fill="#f2f2f2"
     id="path141" />
  <circle
     cx="134.29652"
     cy="230.37416"
     r="32.261841"
     fill="#ffffff"
     id="circle143" />
  <path
     d="m 131.09862,242.6813 a 3.34586,3.34586 0 0 1 -2.01323,-0.66875 l -0.036,-0.027 -7.58175,-5.80486 a 3.3684,3.3684 0 1 1 4.09732,-5.34756 l 4.91089,3.7656 11.6052,-15.13487 a 3.36827,3.36827 0 0 1 4.72263,-0.62342 l -0.0721,0.098 0.074,-0.0966 a 3.3722,3.3722 0 0 1 0.62341,4.72267 l -13.6505,17.80224 a 3.36974,3.36974 0 0 1 -2.67982,1.3145 z"
     fill="#ff6366"
     id="path145" />
  <circle
     cx="337.27118"
     cy="229.91084"
     r="32.261841"
     fill="#ffffff"
     id="circle147" />
  <path
     d="m 334.07329,242.218 a 3.3459,3.3459 0 0 1 -2.01324,-0.66874 l -0.036,-0.027 -7.58176,-5.80486 a 3.3684014,3.3684014 0 1 1 4.09733,-5.34756 l 4.91088,3.7656 11.6052,-15.13488 a 3.3683,3.3683 0 0 1 4.72264,-0.62341 l -0.0721,0.098 0.074,-0.0965 a 3.37217,3.37217 0 0 1 0.62341,4.72266 l -13.65049,17.80224 a 3.36974,3.36974 0 0 1 -2.67982,1.31449 z"
     fill="#ff6366"
     id="path149" />
  <path
     d="m 555.31223,382.14979 a 10.74269,10.74269 0 0 0 -2.18282,-16.32737 l -18.01117,-96.17273 -21.90458,8.12263 24.59219,91.98054 a 10.80091,10.80091 0 0 0 17.50638,12.39693 z"
     fill="#a0616a"
     id="path151" />
  <path
     d="m 380.5273,235.40038 a 11.40614,11.40614 0 0 1 0.0219,1.79608 l 42.59,32.77955 12.0777,-4.95957 9.86722,17.24911 -20.528,10.85781 a 8.66955,8.66955 0 0 1 -10.27652,-1.62745 l -42.571,-43.8892 a 11.37563,11.37563 0 1 1 8.81868,-12.20633 z"
     fill="#a0616a"
     id="path153" />
  <polygon
     points="461.936,515.561 480.031,515.562 480.028,552.849 467.769,552.849 "
     fill="#a0616a"
     id="polygon155" />
  <path
     d="m 483.15489,564.73337 -39.53051,-0.001 v -0.5 a 15.38605,15.38605 0 0 1 15.38647,-15.38623 h 10e-4 l 24.1438,10e-4 z"
     fill="#2f2e41"
     id="path157" />
  <polygon
     points="507.936,515.561 526.031,515.562 526.028,552.849 513.769,552.849 "
     fill="#a0616a"
     id="polygon159" />
  <path
     d="m 529.15489,564.73337 -39.53051,-0.001 v -0.5 a 15.38605,15.38605 0 0 1 15.38647,-15.38623 h 10e-4 l 24.1438,10e-4 z"
     fill="#2f2e41"
     id="path161" />
  <path
     d="m 465.22302,545.4793 a 4.49017,4.49017 0 0 1 -4.47485,-4.07226 l -10.68359,-143.68946 0.50488,-0.041 73.521,-6.043 0.0198,0.52246 5.84448,148.8506 a 4.49964,4.49964 0 0 1 -4.49707,4.668 h -14.41554 a 4.475,4.475 0 0 1 -4.44751,-3.81543 L 487.01843,421.61407 a 0.5,0.5 0 0 0 -0.99414,0.0723 L 485.13635,540.41 a 4.50454,4.50454 0 0 1 -4.26318,4.46192 l -15.40869,0.60058 c -0.0808,0.005 -0.16162,0.007 -0.24146,0.007 z"
     fill="#2f2e41"
     id="path163" />
  <circle
     cx="477.77191"
     cy="191.56438"
     r="24.561029"
     fill="#a0616a"
     id="circle165" />
  <path
     d="m 482.52664,406.88164 a 121.03726,121.03726 0 0 1 -31.76839,-4.34179 4.51046,4.51046 0 0 1 -3.2358,-4.68653 c 3.30645,-49.69336 4.08385,-88.25683 -2.86906,-114.939 -2.96342,-11.37207 -1.618,-23.34912 3.69108,-32.85986 7.98992,-14.313 22.67547,-23.02442 38.34016,-22.72364 v 0 q 1.12287,0.0212 2.26805,0.0801 c 23.7729,1.22412 42.29735,22.73047 41.29428,47.9419 l -4.78177,120.16845 a 4.43993,4.43993 0 0 1 -2.81538,4.04395 114.24513,114.24513 0 0 1 -40.12317,7.31644 z"
     fill="#3f3d56"
     id="path167" />
  <path
     d="m 448.69515,292.14084 -18.39762,-22.54449 a 5.76149,5.76149 0 0 1 1.51427,-8.59185 l 24.92148,-14.85005 a 16.00071,16.00071 0 0 1 20.16015,24.85261 l -19.47729,21.37306 a 5.7615,5.7615 0 0 1 -8.721,-0.23928 z"
     fill="#3f3d56"
     id="path169" />
  <path
     d="m 506.57008,289.31194 a 5.7553,5.7553 0 0 1 -3.16409,-3.60611 l -8.282,-27.70526 A 16.00071,16.00071 0 0 1 524.06737,244.349 l 16.01635,24.18843 a 5.7615,5.7615 0 0 1 -2.36144,8.3986 l -26.35426,12.3361 a 5.755,5.755 0 0 1 -4.79794,0.0398 z"
     fill="#3f3d56"
     id="path171" />
  <path
     d="m 489.90886,211.71724 -18.206,-4.16705 c -1.87794,-0.42983 -4.13413,-1.24991 -4.39457,-3.15873 -0.35,-2.56513 3.34149,-4.35213 3.001,-6.91854 -0.32983,-2.48578 -3.69254,-2.80615 -6.09035,-3.53991 a 9.11065,9.11065 0 0 1 -5.67236,-11.34023 c -2.59437,3.656 -8.52155,3.96913 -11.88655,1.00712 -3.365,-2.96201 -4.01043,-8.33613 -1.98963,-12.33777 a 14.28744,14.28744 0 0 1 10.724,-7.2405 22.61663,22.61663 0 0 1 13.02306,2.42787 c 0.26664,-2.83339 3.80421,-3.98207 6.65,-4.00735 a 28.43074,28.43074 0 0 1 26.64315,19.4463 c 3.492,11.25212 1.15619,23.58635 -8.6142,30.16993 z"
     fill="#2f2e41"
     id="path173" />
  <path
     d="m 673.2874,565 h -381 a 1,1 0 1 1 0,-2 h 381 a 1,1 0 1 1 0,2 z"
     fill="#3f3d56"
     id="path175" />
</svg>
