<?xml version="1.0" encoding="UTF-8" standalone="no"?>
<svg
   xmlns:dc="http://purl.org/dc/elements/1.1/"
   xmlns:cc="http://creativecommons.org/ns#"
   xmlns:rdf="http://www.w3.org/1999/02/22-rdf-syntax-ns#"
   xmlns:svg="http://www.w3.org/2000/svg"
   xmlns="http://www.w3.org/2000/svg"
   xmlns:sodipodi="http://sodipodi.sourceforge.net/DTD/sodipodi-0.dtd"
   xmlns:inkscape="http://www.inkscape.org/namespaces/inkscape"
   id="a8897f4c-2937-4134-8b3a-fee1040aeff6"
   data-name="Layer 1"
   width="1066.1058"
   height="824.19977"
   viewBox="0 0 1066.1058 824.19976"
   version="1.1"
   sodipodi:docname="people.svg"
   inkscape:version="1.0.1 (3bc2e813f5, 2020-09-07)">
  <metadata
     id="metadata77">
    <rdf:RDF>
      <cc:Work
         rdf:about="">
        <dc:format>image/svg+xml</dc:format>
        <dc:type
           rdf:resource="http://purl.org/dc/dcmitype/StillImage" />
      </cc:Work>
    </rdf:RDF>
  </metadata>
  <defs
     id="defs75" />
  <sodipodi:namedview
     pagecolor="#ffffff"
     bordercolor="#666666"
     borderopacity="1"
     objecttolerance="10"
     gridtolerance="10"
     guidetolerance="10"
     inkscape:pageopacity="0"
     inkscape:pageshadow="2"
     inkscape:window-width="1920"
     inkscape:window-height="1057"
     id="namedview73"
     showgrid="false"
     inkscape:zoom="1.0798354"
     inkscape:cx="533.05292"
     inkscape:cy="449.14254"
     inkscape:window-x="-8"
     inkscape:window-y="-8"
     inkscape:window-maximized="1"
     inkscape:current-layer="a8897f4c-2937-4134-8b3a-fee1040aeff6" />
  <title
     id="title2">people</title>
  <polygon
     points="923.508,570.28 910.626,628.22 868.531,817.51 346.914,576.48 308.572,558.76 260.039,536.33 221.683,518.61 175.551,497.29 201.704,459.24 223.452,427.6 250.965,387.57 272.707,355.95 517.369,0 776.55,229.8 822.703,270.72 859.505,303.35 905.666,344.27 962.551,394.71 946.672,466.13 933.782,524.07 "
     fill="#f2f2f2"
     id="polygon4"
     transform="scale(1,1.0085098)" />
  <path
     d="m 204.35365,609.97822 c -34.87988,-19.60982 -56.59376,-46.38259 -64.53906,-79.57379 -5.89942,-24.6435 -4.2041,-52.37456 5.03808,-82.42303 a 218.88823,220.75094 0 0 1 30.439,-62.0076 c 70.63818,-100.8372 77.01367,-166.54299 69.92334,-203.9071 -7.77393,-40.9687 -33.03125,-57.98341 -33.28565,-58.15035 l 1.09034,-1.69102 c 0.26074,0.17087 26.18359,17.58096 34.14453,59.38094 4.58935,24.09787 2.43017,51.57582 -6.41748,81.67014 -11.01172,37.45372 -32.48438,79.12667 -63.82129,123.86155 a 216.90408,218.7499 0 0 0 -30.1626,61.44031 c -15.1582,49.28303 -17.30273,116.98419 58.56445,159.63904 z"
     fill="#2f2e41"
     id="path6"
     style="stroke-width:1.00425" />
  <path
     d="m 221.12701,609.97822 c 34.87988,-19.60982 56.59375,-46.38259 64.53906,-79.57379 5.89942,-24.6435 4.2041,-52.37456 -5.03808,-82.42303 a 218.88823,220.75094 0 0 0 -30.439,-62.0076 C 179.55081,285.1366 173.17532,219.43081 180.26565,182.0667 188.03958,141.098 213.2969,124.08329 213.5513,123.91635 l -1.09034,-1.69102 c -0.26074,0.17087 -26.18359,17.58096 -34.14453,59.38094 -4.58935,24.09787 -2.43017,51.57582 6.41748,81.67014 11.01172,37.45372 32.48438,79.12667 63.82129,123.86155 a 216.90408,218.7499 0 0 1 30.1626,61.44031 c 15.1582,49.28303 17.30273,116.98419 -58.56445,159.63904 z"
     fill="#2f2e41"
     id="path8"
     style="stroke-width:1.00425" />
  <path
     d="m 981.35369,525.26339 c -34.8799,-19.60981 -56.5938,-46.38258 -64.5391,-79.57379 -5.89942,-24.6435 -4.2041,-52.37456 5.03808,-82.42303 a 218.88823,220.75094 0 0 1 30.43902,-62.00759 c 70.63821,-100.8372 77.01371,-166.543 69.92331,-203.907111 -7.7739,-40.968695 -33.03121,-57.983406 -33.28561,-58.150345 l 1.0903,-1.691019 c 0.2607,0.170872 26.18361,17.580959 34.14451,59.380939 4.5894,24.097866 2.4302,51.575816 -6.4174,81.670136 -11.0118,37.45373 -32.48441,79.12667 -63.82131,123.86155 a 216.90408,218.7499 0 0 0 -30.16263,61.44032 c -15.1582,49.28303 -17.30273,116.98418 58.56443,159.63904 z"
     fill="#2f2e41"
     id="path10"
     style="stroke-width:1.00425" />
  <path
     d="m 998.12699,525.26339 c 34.87991,-19.60979 56.59381,-46.38258 64.53911,-79.57378 5.8994,-24.6435 4.2041,-52.37456 -5.0381,-82.42303 a 218.88823,220.75094 0 0 0 -30.439,-62.00759 c -70.63821,-100.8372 -77.01371,-166.543 -69.92331,-203.907111 7.7739,-40.968695 33.0312,-57.983406 33.2856,-58.150345 l -1.0903,-1.691019 c -0.2608,0.170872 -26.1836,17.580959 -34.1446,59.380939 -4.5893,24.097866 -2.4301,51.575816 6.4175,81.670136 11.0117,37.45373 32.4844,79.12667 63.82131,123.86155 a 216.90408,218.7499 0 0 1 30.1626,61.44032 c 15.1582,49.28303 17.3027,116.98418 -58.56441,159.63904 z"
     fill="#2f2e41"
     id="path12"
     style="stroke-width:1.00425" />
  <path
     d="m 467.81489,302.49717 c -26.20687,-44.65832 -78.05507,-46.7396 -78.05507,-46.7396 0,0 -50.52312,-6.51583 -82.93338,61.49936 -30.209,63.39574 -71.90115,124.60564 -6.71211,139.44612 l 11.775,-36.96106 7.29222,39.71277 a 255.06843,257.23902 0 0 0 27.892,0.48075 c 69.81221,-2.27314 136.29778,0.66505 134.157,-24.59969 -2.84566,-33.5859 11.8006,-89.8684 -13.41566,-132.83865 z"
     fill="#2f2e41"
     id="path14"
     style="stroke-width:1.00425" />
  <path
     d="m 360.24714,395.96334 c 9.03031,20.14524 14.72473,44.15827 18.12479,70.8312 l 72.49913,-4.56976 C 434.2032,438.40489 428.66892,411.06487 435.01187,379.96919 Z"
     fill="#ffb8b8"
     id="path16"
     style="stroke-width:1.00425" />
  <path
     d="m 360.24714,395.96334 c 9.03031,20.14524 14.72473,44.15827 18.12479,70.8312 l 72.49913,-4.56976 C 434.2032,438.40489 428.66892,411.06487 435.01187,379.96919 Z"
     opacity="0.2"
     id="path18"
     style="stroke-width:1.00425" />
  <path
     d="m 23.87215,779.52114 c 0,0 -37.5228,20.26992 -18.4819496,37.57584 C 24.43105,834.4029 49.58307,794.18958 49.58307,794.18958 Z"
     fill="#ffb8b8"
     id="path20"
     style="stroke-width:1.00425" />
  <polygon
     points="480.754,801.132 480.39,818.314 240.438,818.314 250.19,764.163 250.2,764.123 258.932,715.656 262.829,693.951 262.829,693.941 459.937,666.755 482.591,714.334 482.005,741.792 480.754,801.122 "
     fill="#2f2e41"
     id="polygon22"
     transform="scale(1,1.0085098)" />
  <path
     d="m 482.58943,720.41597 -0.58908,27.69267 C 412.26518,746.3035 304.1736,729.32687 258.92968,721.74106 l 3.89676,-21.88902 197.107,-27.41854 z"
     fill="#3f3d56"
     id="path24"
     style="stroke-width:1.00425" />
  <circle
     cx="395.36392"
     cy="358.26285"
     fill="#ffb8b8"
     id="circle26"
     rx="56.63995"
     ry="57.121948"
     style="stroke-width:1.00425" />
  <path
     d="m 504.11261,751.26182 c 0,0 6.79679,61.6917 -33.984,57.12194 l -6.7968,-61.6917 -36.24953,-36.55807 -101.9519,-2.28488 -74.76473,70.83128 c 0,0 -2.2656,-73.11609 6.79679,-79.97072 9.06239,-6.85463 29.45278,-22.8488 29.45278,-22.8488 v -11.4244 L 225.44407,538.76819 c 0,0 36.24957,-75.40097 65.70234,-77.68585 l 38.51516,-2.28487 c 0,0 13.59359,-6.85464 13.59359,-9.13952 0,-2.28488 -2.2656,-20.5639 9.06239,-15.99414 0,0 1.01941,-23.44287 12.95916,-16.29118 0,0 37.58646,29.70341 75.73905,1.30239 0,0 17.78489,-3.29023 15.51929,5.84928 -2.2656,9.13951 0,15.99414 4.5312,15.99414 4.5312,0 24.92157,6.85464 24.92157,11.4244 0,0.98248 1.4727,10.44191 3.78337,24.67666 v 0.0229 c 8.40556,51.88948 27.935,167.2302 27.935,167.2302 0,0 20.39038,29.7034 -13.59358,107.38925 z"
     fill="#ea5b5e"
     id="path28"
     style="stroke-width:1.00425" />
  <path
     d="M 241.30326,527.3438 225.44407,538.7682 80.44581,726.12815 3.4154904,787.81986 c 0,0 43.0463596,-6.85463 33.9839996,29.70341 L 302.4744,664.43646 Z"
     fill="#ea5b5e"
     id="path30"
     style="stroke-width:1.00425" />
  <path
     d="m 489.77119,476.61949 v 0.0229 c -3.01286,17.86777 -101.20407,14.1434 -114.79766,14.1434 -13.59359,0 -24.92158,-2.28488 -38.51516,-11.4244 -13.59358,-9.13952 -6.7968,-20.5639 -6.7968,-20.5639 0,0 11.57456,-8.89085 11.57456,-11.17573 0,-2.28488 -2.2656,-20.5639 9.06239,-15.99415 0,0 1.01941,-23.44281 12.95915,-16.29118 0,0 39.6055,31.73963 77.75809,3.33861 0,0 17.78489,-3.29023 15.51929,5.84928 -2.2656,9.13951 0,15.99414 4.5312,15.99414 4.5312,0 24.92157,6.85464 24.92157,11.4244 0,0.98248 1.4727,10.44191 3.78337,24.67666 z"
     fill="#3f3d56"
     id="path32"
     style="stroke-width:1.00425" />
  <path
     d="m 478.05823,391.39358 c 0,0 -18.12478,-38.84292 -36.24956,-20.5639 -18.12478,18.27902 20.39038,45.69759 20.39038,45.69759 z"
     fill="#ffb8b8"
     id="path34"
     style="stroke-width:1.00425" />
  <path
     d="m 478.05823,382.25407 c 0,0 -27.98762,35.67052 -36.64979,38.39916 0,0 25.3218,100.97838 57.04017,128.39691 l 18.12478,93.67998 c 0,0 77.03033,-31.98828 58.90555,-84.54047 q -0.27187,-0.78828 -0.541,-1.56698 A 513.98548,518.35942 0 0 0 512.83949,433.1726 Z"
     fill="#ea5b5e"
     id="path36"
     style="stroke-width:1.00425" />
  <polygon
     points="463.102,483.933 518.839,637.307 498.449,544.417 "
     opacity="0.2"
     id="polygon38"
     transform="scale(1,1.0085098)" />
  <polygon
     points="319.632,344.46 356.064,343.059 366.242,319.311 366.242,342.668 383.052,342.021 392.809,304.213 398.907,344.46 458.668,343.241 456.229,295.676 405.005,268.845 334.268,279.821 "
     fill="#2f2e41"
     id="polygon40"
     transform="scale(1,1.0085098)" />
  <path
     d="m 940.12879,649.48969 29.0622,101.51442 c 0,0 -5.9887,89.91656 21.9587,72.32417 28.59981,-18.00309 17.96611,-93.82594 17.96611,-93.82594 l -16.75191,-91.07177 z"
     fill="#a0616a"
     id="path42"
     style="stroke-width:0.989543" />
  <path
     d="m 955.65819,356.52316 23.9999,24.20417 V 496.0531 c 0,0 14.1176,21.35662 11.2941,27.05171 -2.8236,5.6951 -5.647,5.69511 -2.8235,9.96643 2.8234,4.27132 5.647,7.11887 2.8235,9.96642 -2.8236,2.84756 -2.8235,9.96642 0,12.81397 2.8235,2.84755 8.4705,7.11888 4.2353,11.3902 -4.2353,4.27132 -9.8824,1.42377 -4.2353,17.0853 5.647,15.66152 15.52931,19.93285 12.70581,25.62795 -2.8235,5.69509 -2.8235,19.93284 -2.8235,19.93284 l -60.70571,8.54265 -12.7059,-160.88655 z"
     fill="#d0cde1"
     id="path44"
     style="stroke-width:1.00425" />
  <polygon
     points="998.011,644.338 1003.658,623.161 933.07,625.985 935.893,655.632 "
     fill="#3f3d56"
     id="polygon46"
     transform="scale(1,1.0085098)" />
  <polygon
     points="893.541,254.692 899.894,205.986 809.541,205.986 801.07,290.691 887.188,303.397 "
     fill="#a0616a"
     id="polygon48"
     transform="scale(1,1.0085098)" />
  <polygon
     points="893.541,254.233 899.894,205.527 809.541,205.527 801.07,290.233 887.188,302.939 "
     opacity="0.1"
     id="polygon50"
     transform="scale(1,1.0085098)" />
  <path
     d="m 622.48257,614.2264 47.99987,103.93556 c 0,0 8.47057,48.40834 21.17642,49.83212 12.70585,1.42377 25.41169,-49.83212 25.41169,-49.83212 L 700.12942,691.11024 680.36477,614.2264 Z"
     fill="#a0616a"
     id="path52"
     style="stroke-width:1.00425" />
  <path
     d="m 951.05599,826.28609 h -271.3685 c 2.15028,-34.30008 3.503,-55.44622 3.503,-55.44622 l 3.604,-5.72176 17.47475,-27.69256 12.47765,-19.77168 4.351,-6.9028 1.61527,-2.5554 17.09113,-3.14598 176.3223,-32.44712 a 215.42643,217.25968 0 0 0 12.32623,38.4336 c 1.20133,2.75909 2.49348,5.51813 3.87652,8.24665 4.43175,8.7252 9.84275,16.99224 16.27345,23.08056 1.4638,1.38462 2.5238,5.08036 3.2103,10.76142 1.696,13.91753 1.2114,39.79783 -0.7571,73.16129 z"
     fill="#2f2e41"
     id="path54"
     style="stroke-width:1.00425" />
  <ellipse
     cx="856.8349"
     cy="167.1611"
     fill="#a0616a"
     id="circle56"
     rx="67.764519"
     ry="68.341187"
     style="stroke-width:1.00425" />
  <path
     d="m 705.77647,306.69104 -9.88233,-5.69505 c 0,0 -43.76459,29.89929 -57.8822,96.81668 -14.11761,66.91739 -23.99993,84.00272 -23.99993,84.00272 0,0 -14.11761,2.84755 -4.23529,12.81396 9.88232,9.96642 9.88233,8.54266 1.41176,14.23775 -8.47057,5.6951 -14.11761,-5.69505 -8.47056,5.69506 5.64705,11.39011 12.70585,8.54264 7.0588,15.66152 -5.64705,7.11888 -15.52937,7.11887 -9.88232,12.81397 5.64705,5.69511 -5.647,18.50908 1.41176,24.20417 7.05876,5.6951 9.88232,7.11888 9.88232,17.0853 a 49.9927,50.41813 0 0 0 2.82353,17.08529 h 73.41156 c 0,0 -14.11761,-27.05171 -9.88232,-32.74682 4.23529,-5.6951 5.647,-11.39019 2.82352,-14.23774 -2.82348,-2.84756 -11.29409,2.84755 -2.82352,-4.27133 8.47057,-7.11888 11.29408,-2.84754 8.47056,-11.3902 -2.82352,-8.54265 -8.47056,-4.27132 -2.82352,-8.54264 5.64704,-4.27132 9.88233,-2.84755 7.05881,-7.11888 -2.82352,-4.27133 -8.47057,-4.27132 -2.82353,-7.11887 5.64704,-2.84755 9.88233,0 8.47057,-7.11888 -1.41176,-7.11888 -2.82352,-4.27132 0,-7.11887 2.82352,-2.84755 32.4705,-99.66424 32.4705,-102.51179 0,-2.84754 -22.58817,-92.54535 -22.58817,-92.54535 z"
     fill="#d0cde1"
     id="path58"
     style="stroke-width:1.00425" />
  <polygon
     points="687.424,618.926 691.659,590.691 602.718,596.338 625.306,617.514 "
     fill="#3f3d56"
     id="polygon60"
     transform="scale(1,1.0085098)" />
  <path
     d="m 717.07055,702.50044 -18.35289,34.17059 c 0,0 55.05868,7.11888 74.82333,14.23775 19.76465,7.11887 70.588,17.0853 70.588,17.0853 l 12.7059,-49.83212 z"
     fill="#3f3d56"
     id="path62"
     style="stroke-width:1.00425" />
  <polygon
     points="948.599,702.22 878.011,712.102 893.541,758.69 955.658,745.984 "
     fill="#3f3d56"
     id="polygon64"
     transform="scale(1,1.0085098)" />
  <path
     d="m 903.423,258.2827 c 0,0 -4.23529,-2.84755 -14.11761,2.84755 -9.88232,5.69509 -42.35283,8.54265 -57.8822,-8.54265 -15.52937,-17.08529 -26.82346,-31.32304 -31.05874,-28.47549 -4.23528,2.84755 -7.05881,35.59434 -7.05881,35.59434 l -14.11761,11.39023 -83.29389,29.89929 7.0588,192.20959 12.70585,44.13702 c 0,0 -9.88232,34.1706 2.82352,54.10345 12.70584,19.93284 -7.0588,27.05172 -7.0588,27.05172 0,0 -4.23528,5.69506 -1.41176,19.93284 2.82352,14.23779 -2.82352,66.91742 -2.82352,66.91742 0,0 119.99968,54.10344 245.64636,7.11888 l -14.1176,-54.10345 -7.05878,-121.02086 c 0,0 7.05878,-19.93284 5.64708,-28.4755 -1.4118,-8.54265 42.3528,-128.13973 42.3528,-128.13973 0,0 -7.0588,-59.79858 -43.7646,-72.61251 -36.70577,-12.81394 -42.35282,-25.62794 -42.35282,-25.62794 0,0 16.94113,-18.5091 9.88233,-24.2042 z"
     fill="#d0cde1"
     id="path66"
     style="stroke-width:1.00425" />
  <path
     d="m 788.60047,175.9157 c 0,0 -7.037,-10.64531 -4.33045,-22.1095 a 66.44367,67.009096 0 0 0 1.89457,-19.92583 c 0,0 5.68372,-18.56106 11.36745,-28.93342 5.68373,-10.372366 2.97719,-14.739667 20.84032,-18.015146 17.86313,-3.275478 10.55549,-26.749715 57.6492,-1.364786 a 13.81105,13.92858 0 0 0 14.34464,5.459135 c 9.74353,-1.910693 13.262,11.737137 13.262,11.737137 0,0 6.49569,-3.821384 8.93157,1.63775 2.43588,5.45913 19.8043,-3.27647 19.8043,33.57269 0,36.84915 -19.76465,69.76497 -19.76465,69.76497 0,0 1.44894,-61.98471 -30.75883,-68.26273 -32.20777,-6.27801 -66.85142,-24.5661 -75.24168,-1.09182 -8.39026,23.47428 -17.99844,37.53155 -17.99844,37.53155 z"
     fill="#2f2e41"
     id="path68"
     style="stroke-width:1.00425" />
  <ellipse
     cx="913.3053"
     cy="182.11075"
     rx="6.3529201"
     ry="8.5426531"
     fill="#a0616a"
     id="ellipse70"
     style="stroke-width:1.00425" />
</svg>
